<svg width="12" height="16" viewBox="0 0 12 16" fill="none" xmlns="http://www.w3.org/2000/svg">
<path d="M11.5 5.5C11.5 4.81056 11.3577 4.12787 11.0813 3.49091C10.8049 2.85395 10.3998 2.2752 9.88909 1.78769C9.37836 1.30018 8.77205 0.91347 8.10476 0.649632C7.43747 0.385795 6.72227 0.25 6 0.25C5.27773 0.25 4.56253 0.385795 3.89524 0.649632C3.22795 0.91347 2.62163 1.30018 2.11091 1.78769C1.60019 2.2752 1.19506 2.85395 0.918662 3.49091C0.642262 4.12787 0.5 4.81056 0.5 5.5C0.5 6.54025 0.821357 7.50775 1.36821 8.32375H1.36193L6 15.25L10.6381 8.32375H10.6326C11.199 7.4812 11.5001 6.50112 11.5 5.5ZM6 7.75C5.37485 7.75 4.7753 7.51295 4.33325 7.09099C3.8912 6.66903 3.64286 6.09674 3.64286 5.5C3.64286 4.90326 3.8912 4.33097 4.33325 3.90901C4.7753 3.48705 5.37485 3.25 6 3.25C6.62515 3.25 7.2247 3.48705 7.66675 3.90901C8.1088 4.33097 8.35714 4.90326 8.35714 5.5C8.35714 6.09674 8.1088 6.66903 7.66675 7.09099C7.2247 7.51295 6.62515 7.75 6 7.75Z" fill="#FF813D"/>
</svg>
