<svg width="39" height="30" viewBox="0 0 39 30" fill="none" xmlns="http://www.w3.org/2000/svg">
<path d="M1.76887 6.86251H3.74289V1.67694C3.74289 1.34957 4.50149 1.07043 4.8064 1.41012C4.84122 1.44809 5.00581 1.80727 5.00581 1.83087V6.86251H7.13809V1.83087C7.13809 1.80727 7.30374 1.44911 7.3375 1.41012C7.64242 1.07043 8.40101 1.34957 8.40101 1.67694V6.86251H10.375V1.75391C10.375 1.2059 11.4955 0.898024 11.6316 1.83806C11.5493 3.77456 11.7656 5.82704 11.6422 7.74918C11.5103 9.80781 10.4373 11.498 8.55505 12.4442L8.54872 26.556C8.17522 29.5085 3.96235 29.5013 3.59307 26.556L3.58674 12.4442C1.79102 11.5616 0.652605 9.85399 0.503841 7.89798C0.354022 5.92248 0.597742 3.76533 0.521777 1.77135C0.678982 0.921628 1.76675 1.21103 1.76675 1.75288V6.86148L1.76887 6.86251ZM10.3771 8.09194H1.76887C2.04002 10.5426 4.43396 12.2113 6.92181 11.7597C8.71647 11.4334 10.2094 9.8622 10.3771 8.09194ZM7.29741 12.8547C6.51033 13.0764 5.63779 13.0764 4.84966 12.8547V26.7971C4.84966 26.8474 5.14086 27.2189 5.21682 27.2846C5.7222 27.7218 6.42487 27.7218 6.93025 27.2846C7.00621 27.2189 7.29741 26.8464 7.29741 26.7971V12.8547Z" fill="#FF813D"/>
<path d="M34.2447 16.0197L34.231 27.8758C33.8923 30.5584 30.0192 30.7574 29.3661 28.1457L29.3323 16.0587C25.1321 13.8605 24.0159 8.27774 25.8675 4.22411C28.1253 -0.718245 33.9725 -1.63262 37.0723 3.1363C39.711 7.19506 38.8279 13.6573 34.2447 16.0207V16.0197ZM31.2093 1.19876C27.5071 1.61234 26.0163 6.09802 26.2526 9.20443C26.5058 12.5376 29.3819 16.4651 33.2414 15.1597C39.6066 13.0077 38.101 0.429087 31.2093 1.19876ZM33.043 16.4651C32.1842 16.6446 31.3749 16.6446 30.5161 16.4651V27.8727C30.5161 28.3776 31.3211 28.8507 31.8191 28.8394C32.2876 28.8281 33.043 28.3417 33.043 27.8727V16.4651Z" fill="#FF813D"/>
<path d="M19.4591 19.3836V26.8731C19.4591 27.0701 19.1795 27.7485 19.0508 27.9353C17.7625 29.8143 14.7524 29.0836 14.5056 26.8515L14.5193 1.40397C14.8105 0.474203 16.4237 1.53533 16.9259 1.83704C19.0603 3.11881 20.8518 5.10048 21.8425 7.34793C23.4198 10.9254 22.6285 14.8631 22.9376 18.656C22.9841 18.8797 22.7319 19.3826 22.4998 19.3826H19.4591V19.3836ZM21.6705 18.2312L21.5903 10.9726C21.1841 7.43824 18.978 4.20765 15.7474 2.56054V27.027C15.7474 27.0701 16.0702 27.5022 16.1451 27.5617C16.8351 28.1107 17.8775 27.8172 18.1793 27.0106L18.1962 18.8839C18.1656 18.6766 18.4251 18.2312 18.6309 18.2312H21.6716H21.6705Z" fill="#FF813D"/>
<path d="M31.4446 2.73404C34.4779 2.3451 35.8875 6.49109 35.7313 8.82373C35.572 11.2251 33.6898 14.7882 30.6986 13.6357C26.5691 12.0451 27.0566 3.29744 31.4435 2.73404H31.4446ZM31.3633 3.96039C29.7195 4.28673 28.9441 7.20638 29.0127 8.59385C29.1002 10.3641 30.6649 13.9775 32.9227 12.238C34.0327 11.3832 34.6024 9.38097 34.5465 8.04994C34.4811 6.50135 33.4344 3.5499 31.3633 3.96142V3.96039Z" fill="#FF813D"/>
</svg>
