<svg width="39" height="30" viewBox="0 0 39 30" fill="none" xmlns="http://www.w3.org/2000/svg">
<g clip-path="url(#clip0_970_1372)">
<path d="M1.76887 6.86251H3.74289V1.67694C3.74289 1.34957 4.50149 1.07043 4.8064 1.41012C4.84122 1.44809 5.00581 1.80727 5.00581 1.83087V6.86251H7.13809V1.83087C7.13809 1.80727 7.30374 1.44911 7.3375 1.41012C7.64242 1.07043 8.40101 1.34957 8.40101 1.67694V6.86251H10.375V1.75391C10.375 1.2059 11.4955 0.898021 11.6316 1.83806C11.5493 3.77456 11.7656 5.82704 11.6422 7.74918C11.5103 9.80781 10.4373 11.498 8.55505 12.4442L8.54872 26.556C8.17522 29.5085 3.96235 29.5013 3.59307 26.556L3.58674 12.4442C1.79102 11.5616 0.652605 9.85399 0.503841 7.89798C0.354022 5.92248 0.597742 3.76533 0.521777 1.77135C0.678982 0.921625 1.76675 1.21103 1.76675 1.75288V6.86148L1.76887 6.86251ZM10.3771 8.09194H1.76887C2.04002 10.5426 4.43396 12.2113 6.92181 11.7597C8.71647 11.4334 10.2094 9.8622 10.3771 8.09194ZM7.29741 12.8547C6.51033 13.0764 5.63779 13.0764 4.84966 12.8547V26.7971C4.84966 26.8474 5.14086 27.2189 5.21682 27.2846C5.7222 27.7218 6.42487 27.7218 6.93025 27.2846C7.00621 27.2189 7.29741 26.8464 7.29741 26.7971V12.8547Z" fill="white"/>
<path d="M34.245 16.0197L34.2313 27.8758C33.8926 30.5584 30.0195 30.7574 29.3664 28.1457L29.3326 16.0587C25.1324 13.8605 24.0162 8.27774 25.8678 4.22411C28.1256 -0.718246 33.9728 -1.63262 37.0726 3.1363C39.7113 7.19506 38.8282 13.6573 34.245 16.0207V16.0197ZM31.2096 1.19876C27.5074 1.61234 26.0166 6.09802 26.2529 9.20443C26.5061 12.5376 29.3822 16.4651 33.2417 15.1597C39.6069 13.0077 38.1013 0.429086 31.2096 1.19876ZM33.0433 16.4651C32.1845 16.6446 31.3752 16.6446 30.5164 16.4651V27.8727C30.5164 28.3776 31.3214 28.8507 31.8194 28.8394C32.2879 28.8281 33.0433 28.3417 33.0433 27.8727V16.4651Z" fill="white"/>
<path d="M19.4594 19.3836V26.8731C19.4594 27.0701 19.1798 27.7485 19.0511 27.9353C17.7628 29.8143 14.7527 29.0836 14.5059 26.8515L14.5196 1.40397C14.8108 0.474204 16.424 1.53533 16.9262 1.83704C19.0606 3.11881 20.8521 5.10048 21.8428 7.34793C23.4201 10.9254 22.6288 14.8631 22.9379 18.656C22.9844 18.8797 22.7322 19.3826 22.5001 19.3826L19.4594 19.3836ZM21.6708 18.2312L21.5906 10.9726C21.1844 7.43824 18.9783 4.20765 15.7477 2.56054V27.027C15.7477 27.0701 16.0705 27.5022 16.1454 27.5617C16.8354 28.1107 17.8778 27.8172 18.1796 27.0106L18.1965 18.8839C18.1659 18.6766 18.4254 18.2312 18.6312 18.2312H21.6719H21.6708Z" fill="white"/>
<path d="M31.4442 2.73404C34.4775 2.3451 35.8871 6.49109 35.7309 8.82373C35.5716 11.2251 33.6894 14.7882 30.6982 13.6357C26.5687 12.0451 27.0562 3.29744 31.4431 2.73404H31.4442ZM31.3629 3.96039C29.7191 4.28673 28.9437 7.20638 29.0123 8.59385C29.0998 10.3641 30.6645 13.9775 32.9223 12.238C34.0323 11.3832 34.602 9.38097 34.5461 8.04994C34.4807 6.50135 33.434 3.5499 31.3629 3.96142V3.96039Z" fill="white"/>
</g>
<defs>
<clipPath id="clip0_970_1372">
<rect width="39" height="30" fill="white"/>
</clipPath>
</defs>
</svg>
