<svg width="31" height="30" viewBox="0 0 31 30" fill="none" xmlns="http://www.w3.org/2000/svg">
<g clip-path="url(#clip0_970_1362)">
<path d="M0.065374 24.4931C0.246397 23.698 0.675222 23.0759 1.38966 22.6478C0.71384 21.9521 0.853025 20.819 1.63665 20.2516C1.81526 20.1217 2.00192 20.0747 2.16524 19.9456C2.19823 18.4744 1.89733 16.6135 3.49757 15.8223C3.043 15.1266 2.89014 14.3871 3.43884 13.6867C4.61669 12.1834 6.97884 13.4621 6.41807 15.1782C6.37865 15.2988 6.06085 15.7824 6.08821 15.8207C6.43014 15.96 6.69001 16.2378 6.9008 16.5258C6.97321 16.543 7.52754 15.8121 7.77212 15.8207C7.68925 15.5891 7.52111 15.424 7.44387 15.1767C6.89678 13.4339 9.25249 12.1943 10.4215 13.6859C10.9806 14.3996 10.8044 15.1133 10.3635 15.8207C10.6821 15.9546 10.9597 16.2136 11.1439 16.4977L11.2349 16.525C11.4456 16.2378 11.7055 15.96 12.0474 15.82C11.9646 15.5883 11.7964 15.4232 11.7192 15.1759C11.2365 13.6374 13.0942 12.354 14.3983 13.3901C15.2359 14.0561 15.1924 14.9943 14.6397 15.82C14.9583 15.9538 15.2359 16.2128 15.4201 16.4969L15.511 16.5243C15.7218 16.2371 15.9817 15.9592 16.3236 15.8192C15.8916 15.1485 15.721 14.4497 16.2142 13.7516C17.3406 12.156 19.821 13.4151 19.2449 15.1767C19.2055 15.2972 18.8877 15.7808 18.915 15.8192C19.2336 15.953 19.5112 16.212 19.6955 16.4961L19.7864 16.5235C19.9972 16.2363 20.257 15.9585 20.599 15.8184C20.5161 15.5868 20.3479 15.4216 20.2707 15.1743C19.7824 13.6178 21.6811 12.3329 22.9804 13.4175C23.793 14.096 23.7335 14.9959 23.1912 15.8184C23.5098 15.9522 23.7874 16.2112 23.9716 16.4953L24.0625 16.5227C24.2733 16.2355 24.5332 15.9577 24.8751 15.8176C24.7923 15.586 24.6241 15.4208 24.5469 15.1736C23.9925 13.4073 26.4062 12.1787 27.551 13.7156C28.082 14.4278 27.897 15.1243 27.4658 15.8184C29.0612 16.6041 28.7659 18.4783 28.7981 19.9417C28.9614 20.0708 29.1481 20.1178 29.3267 20.2477C30.1103 20.8158 30.2495 21.9482 29.5737 22.6439C30.3332 23.1064 30.828 23.8107 30.8996 24.6919C31.0267 26.2546 30.799 27.9771 30.8988 29.5571C30.9004 29.7723 30.7499 29.8756 30.5963 29.9953H30.2954C30.1151 29.8607 30.021 29.7903 29.9928 29.5571C29.8134 28.0796 30.1304 26.2632 29.9961 24.7506C29.8158 22.7222 26.7996 22.7222 26.6194 24.7506C26.485 26.264 26.8028 28.0796 26.6226 29.5571C26.5944 29.7903 26.5003 29.8607 26.3201 29.9953H26.0192C25.839 29.8607 25.7448 29.7903 25.7167 29.5571C25.5373 28.0796 25.8543 26.2632 25.7199 24.7506C25.5598 22.9467 23.0086 22.6658 22.4374 24.3147C22.3167 24.6629 22.4325 25.2608 21.9482 25.3085C21.3617 25.3657 21.4759 24.7169 21.3649 24.3585C20.85 22.6995 18.2867 22.9295 18.0759 24.6418C17.8893 26.1646 18.2545 28.0428 18.0703 29.5571C18.0421 29.7903 17.948 29.8607 17.7678 29.9953H17.4669C17.2866 29.8607 17.1925 29.7903 17.1644 29.5571C16.9849 28.0796 17.3019 26.2632 17.1676 24.7506C16.9874 22.7222 13.9711 22.7222 13.7909 24.7506C13.6565 26.264 13.9743 28.0796 13.7941 29.5571C13.766 29.7903 13.6718 29.8607 13.4916 29.9953H13.1907C13.0105 29.8607 12.9164 29.7903 12.8882 29.5571C12.7088 28.0796 13.0258 26.2632 12.8914 24.7506C12.7112 22.7222 9.69499 22.7222 9.51477 24.7506C9.38041 26.264 9.69821 28.0796 9.51799 29.5571C9.48983 29.7903 9.3957 29.8607 9.21548 29.9953H8.91458C8.73436 29.8607 8.64023 29.7903 8.61207 29.5571C8.43265 28.0796 8.74965 26.2632 8.61529 24.7506C8.50587 23.518 7.17595 22.8364 6.06407 23.4445C4.77921 24.1472 5.41722 25.6943 5.237 26.7993C5.15413 27.3095 4.45981 27.3244 4.34958 26.8486C4.17258 26.0825 4.53463 25.0252 4.20879 24.2325C3.56917 22.6775 1.17163 23.0086 0.971294 24.641C0.784639 26.1639 1.1499 28.042 0.965661 29.5563C0.937502 29.7895 0.84337 29.8599 0.663151 29.9945H0.0605469V24.4884L0.065374 24.4931ZM4.6891 13.9019C3.48631 14.0623 4.02696 15.9139 5.16781 15.3668C5.94822 14.9928 5.55319 13.7861 4.6891 13.9019ZM8.96446 13.9019C7.76166 14.0623 8.30232 15.9139 9.44317 15.3668C10.2235 14.9928 9.82854 13.7861 8.96446 13.9019ZM13.2406 13.9019C12.0378 14.0623 12.5784 15.9139 13.7193 15.3668C14.4997 14.9928 14.1047 13.7861 13.2406 13.9019ZM17.5168 13.9019C16.314 14.0623 16.8546 15.9139 17.9955 15.3668C18.7759 14.9928 18.3808 13.7861 17.5168 13.9019ZM21.7921 13.9019C20.5893 14.0623 21.13 15.9139 22.2708 15.3668C23.0512 14.9928 22.6562 13.7861 21.7921 13.9019ZM26.0683 13.9019C24.8655 14.0623 25.4061 15.9139 26.547 15.3668C27.3274 14.9928 26.9324 13.7861 26.0683 13.9019ZM4.44613 16.3654C3.79847 16.464 3.19265 17.0885 3.13472 17.7255C3.07116 18.4157 3.18701 19.1951 3.13633 19.8963C3.16207 20.0239 3.57239 20.1687 3.73974 20.3048C4.46624 20.8949 4.57807 21.9654 3.92076 22.6486C4.26028 22.8787 4.55313 23.1056 4.79289 23.4382C5.03264 23.1048 5.32631 22.8787 5.66502 22.6486C4.9892 21.9529 5.12838 20.8205 5.91201 20.2524C6.09062 20.1225 6.27728 20.0755 6.4406 19.9464C6.36095 19.1912 6.62243 17.9869 6.33922 17.3076C6.03591 16.5806 5.21528 16.2488 4.44532 16.3662L4.44613 16.3654ZM8.7223 16.3654C8.07464 16.464 7.46881 17.0885 7.41088 17.7255C7.34732 18.4157 7.46318 19.1951 7.41249 19.8963C7.43824 20.0239 7.84856 20.1687 8.0159 20.3048C8.74241 20.8949 8.85424 21.9654 8.19692 22.6486C8.53644 22.8787 8.8293 23.1056 9.06905 23.4382C9.30881 23.1048 9.60247 22.8787 9.94118 22.6486C9.26536 21.9529 9.40455 20.8205 10.1881 20.2524C10.3667 20.1225 10.5534 20.0755 10.7167 19.9464C10.6371 19.1912 10.8986 17.9869 10.6154 17.3076C10.312 16.5806 9.49144 16.2488 8.72149 16.3662L8.7223 16.3654ZM12.9976 16.3654C12.35 16.464 11.7441 17.0885 11.6862 17.7255C11.6226 18.4157 11.7385 19.1951 11.6878 19.8963C11.7136 20.0239 12.1239 20.1687 12.2912 20.3048C13.0177 20.8949 13.1296 21.9654 12.4722 22.6486C12.8118 22.8787 13.1046 23.1056 13.3444 23.4382C13.5841 23.1048 13.8778 22.8787 14.2165 22.6486C13.5407 21.9529 13.6799 20.8205 14.4635 20.2524C14.6421 20.1225 14.8288 20.0755 14.9921 19.9464C14.9124 19.1912 15.1739 17.9869 14.8907 17.3076C14.5874 16.5806 13.7668 16.2488 12.9968 16.3662L12.9976 16.3654ZM17.2738 16.3654C16.6261 16.464 16.0203 17.0885 15.9624 17.7255C15.8988 18.4157 16.0147 19.1951 15.964 19.8963C15.9897 20.0239 16.4 20.1687 16.5674 20.3048C17.2939 20.8949 17.4057 21.9654 16.7484 22.6486C17.0879 22.8787 17.3808 23.1056 17.6205 23.4382C17.8603 23.1048 18.1539 22.8787 18.4927 22.6486C17.8168 21.9529 17.956 20.8205 18.7397 20.2524C18.9183 20.1225 19.1049 20.0755 19.2682 19.9464C19.1886 19.1912 19.4501 17.9869 19.1669 17.3076C18.8636 16.5806 18.0429 16.2488 17.273 16.3662L17.2738 16.3654ZM21.5499 16.3654C20.9023 16.464 20.2965 17.0885 20.2385 17.7255C20.175 18.4157 20.2908 19.1951 20.2401 19.8963C20.2659 20.0239 20.6762 20.1687 20.8435 20.3048C21.5701 20.8949 21.6819 21.9654 21.0246 22.6486C21.3641 22.8787 21.6569 23.1056 21.8967 23.4382C22.1365 23.1048 22.4301 22.8787 22.7688 22.6486C22.093 21.9529 22.2322 20.8205 23.0158 20.2524C23.1944 20.1225 23.3811 20.0755 23.5444 19.9464C23.4648 19.1912 23.7262 17.9869 23.443 17.3076C23.1397 16.5806 22.3191 16.2488 21.5491 16.3662L21.5499 16.3654ZM25.8253 16.3654C25.1776 16.464 24.5718 17.0885 24.5139 17.7255C24.4503 18.4157 24.5662 19.1951 24.5155 19.8963C24.5412 20.0239 24.9516 20.1687 25.1189 20.3048C25.8454 20.8949 25.9572 21.9654 25.2999 22.6486C25.6394 22.8787 25.9323 23.1056 26.1721 23.4382C26.4118 23.1048 26.7055 22.8787 27.0442 22.6486C26.3684 21.9529 26.5076 20.8205 27.2912 20.2524C27.4698 20.1225 27.6564 20.0755 27.8198 19.9464C27.7401 19.1912 28.0016 17.9869 27.7184 17.3076C27.4151 16.5806 26.5944 16.2488 25.8245 16.3662L25.8253 16.3654ZM2.45809 20.8166C1.627 20.9825 1.68412 22.309 2.62544 22.3309C3.8033 22.3583 3.64802 20.5795 2.45809 20.8166ZM6.73426 20.8166C5.90316 20.9825 5.96029 22.309 6.90161 22.3309C8.07946 22.3583 7.92418 20.5795 6.73426 20.8166ZM11.0096 20.8166C10.1785 20.9825 10.2356 22.309 11.1769 22.3309C12.3548 22.3583 12.1995 20.5795 11.0096 20.8166ZM15.2857 20.8166C14.4546 20.9825 14.5118 22.309 15.4531 22.3309C16.6309 22.3583 16.4757 20.5795 15.2857 20.8166ZM19.5611 20.8166C18.73 20.9825 18.7871 22.309 19.7284 22.3309C20.9063 22.3583 20.751 20.5795 19.5611 20.8166ZM23.8373 20.8166C23.0062 20.9825 23.0633 22.309 24.0046 22.3309C25.1825 22.3583 25.0272 20.5795 23.8373 20.8166ZM28.1134 20.8166C27.2823 20.9825 27.3395 22.309 28.2808 22.3309C29.4586 22.3583 29.3033 20.5795 28.1134 20.8166Z" fill="white"/>
<path d="M0.0654297 0.300958C0.236798 0.0215835 0.59804 -0.125538 0.850668 0.152272C1.03652 0.358086 0.946409 0.485644 1.31087 0.700066C2.73411 1.53663 7.18325 1.79174 8.94923 1.88095C12.9414 2.08442 17.0695 2.05155 21.0544 1.88252C22.6523 1.81444 28.9446 1.57654 29.9189 0.516946C30.0171 0.409735 30.0147 0.213313 30.1788 0.0967105C30.5738 -0.184229 30.9994 0.1914 30.8723 0.653112C30.7034 1.26586 29.8312 1.60314 29.2745 1.79331L29.2222 1.85982L29.2166 6.07158C28.9454 7.1789 27.6783 5.62395 27.3894 5.69438L25.9348 7.44889C25.7884 7.60305 25.2389 7.46532 25.2389 7.29942V2.525L23.7867 2.67682L22.0175 8.44118C21.8888 8.81759 21.3441 8.85985 21.1735 8.50065L19.3914 2.82394L18.0124 2.87637V7.35733C18.0124 7.59601 17.623 7.71339 17.3937 7.66644C16.9263 7.57018 16.0928 6.82362 15.5996 6.65615C15.5529 6.6405 15.5111 6.61154 15.4572 6.62407L13.6607 7.63514C13.3396 7.77756 13.013 7.63748 12.9575 7.29629C12.9132 7.02474 12.9173 5.8822 12.98 5.6263C13.0484 5.34614 13.3404 5.18571 13.6156 5.30936C13.647 5.32345 13.8578 5.52613 13.8578 5.54256V6.45034C14.2914 6.39008 15.1281 5.62943 15.5047 5.64743C15.8812 5.66543 16.66 6.38538 17.1097 6.45034V2.87716H13.8578V3.84362C13.8578 4.07995 13.3726 4.17699 13.161 4.05256C13.12 4.0283 12.9543 3.81154 12.9543 3.78493V2.87716L11.5753 2.82472L9.7932 8.50143C9.62264 8.86063 9.07715 8.81837 8.94923 8.44196L7.18003 2.6776L5.72783 2.52579V7.3002C5.72783 7.4661 5.17832 7.60383 5.03189 7.44967L3.57728 5.69516C3.28844 5.62395 2.01967 7.17968 1.75015 6.07236L1.74452 1.86061C1.09605 1.52332 0.387249 1.37385 0.066235 0.651547V0.300177L0.0654297 0.300958ZM4.82352 2.40918L2.65526 2.05781V5.16224C2.99398 5.06677 3.35763 4.54949 3.72692 4.61601C4.14609 4.69114 4.4848 5.48935 4.82352 5.74838V2.40918ZM28.3106 2.05781L26.1424 2.40918V5.74838C26.4811 5.49013 26.8198 4.69192 27.239 4.61601C27.5914 4.55262 27.9824 5.05503 28.3106 5.16224V2.05781ZM10.6645 2.82003L8.13503 2.70264L9.34024 6.7438L10.6645 2.82003ZM22.8904 2.70264L20.3006 2.82003L21.5959 6.7438L22.8904 2.70264Z" fill="white"/>
<path d="M22.0474 29.9999H21.7465C21.6017 29.8833 21.481 29.8137 21.4489 29.6157C21.3692 29.1282 21.3829 27.3776 21.444 26.865C21.514 26.2781 22.2799 26.2781 22.3499 26.865C22.4111 27.3776 22.424 29.129 22.3451 29.6157C22.3129 29.8137 22.1923 29.8833 22.0474 29.9999Z" fill="white"/>
<path d="M4.94376 30H4.64286C4.25748 29.8122 4.28645 29.1118 4.34518 28.744C4.42724 28.2338 5.15938 28.2338 5.24144 28.744C5.30017 29.1118 5.32914 29.8122 4.94376 30Z" fill="white"/>
<path d="M27.5116 8.98048C27.7071 8.94057 27.8528 9.00396 27.9767 9.14873C28.0346 9.21603 28.7346 10.6199 28.7643 10.7264C28.9188 11.2796 28.3242 11.5903 27.9807 11.1951C27.9228 11.1278 27.2236 9.72235 27.1947 9.6167C27.1182 9.33341 27.185 9.04621 27.5116 8.98048Z" fill="white"/>
<path d="M2.87883 8.86458C3.21191 8.76676 3.55223 9.0657 3.47339 9.38029C3.43638 9.52819 2.57793 10.8405 2.44679 10.9642C2.11853 11.2741 1.63902 11.1301 1.64063 10.6981C1.64063 10.4962 2.68172 8.9217 2.87883 8.86458Z" fill="white"/>
<path d="M15.6468 9.80204C15.7932 9.77074 15.8729 9.79187 16.0088 9.83569C16.1931 9.89516 17.2889 10.5134 17.4659 10.6441C17.9655 11.0119 17.6598 11.6121 17.1063 11.4619C16.963 11.4227 15.6251 10.6589 15.5133 10.5517C15.2695 10.317 15.2976 9.87638 15.6468 9.80204Z" fill="white"/>
<path d="M22.9938 10.68C23.7621 10.4554 23.7774 11.7583 23.0083 11.522C22.5819 11.3913 22.6261 10.7872 22.9938 10.68Z" fill="white"/>
<path d="M7.63764 11.0644C7.25789 11.4643 6.56839 10.8829 6.96262 10.4368C7.35685 9.99073 8.02704 10.6551 7.63764 11.0644Z" fill="white"/>
</g>
<defs>
<clipPath id="clip0_970_1362">
<rect width="31" height="30" fill="white"/>
</clipPath>
</defs>
</svg>
