<svg width="31" height="30" viewBox="0 0 31 30" fill="none" xmlns="http://www.w3.org/2000/svg">
<path d="M0.065435 24.4931C0.246458 23.698 0.675283 23.0759 1.38972 22.6478C0.713901 21.9521 0.853086 20.819 1.63671 20.2516C1.81532 20.1217 2.00198 20.0747 2.1653 19.9456C2.19829 18.4744 1.89739 16.6135 3.49763 15.8223C3.04306 15.1266 2.8902 14.3871 3.4389 13.6867C4.61675 12.1834 6.9789 13.4621 6.41813 15.1782C6.37871 15.2988 6.06091 15.7824 6.08827 15.8207C6.4302 15.96 6.69007 16.2378 6.90086 16.5258C6.97327 16.543 7.5276 15.8121 7.77218 15.8207C7.68931 15.5891 7.52117 15.424 7.44393 15.1767C6.89684 13.4339 9.25255 12.1943 10.4216 13.6859C10.9807 14.3996 10.8045 15.1133 10.3636 15.8207C10.6822 15.9546 10.9598 16.2136 11.144 16.4977L11.235 16.525C11.4457 16.2378 11.7056 15.96 12.0475 15.82C11.9647 15.5883 11.7965 15.4232 11.7193 15.1759C11.2366 13.6374 13.0943 12.354 14.3984 13.3901C15.236 14.0561 15.1925 14.9943 14.6398 15.82C14.9584 15.9538 15.236 16.2128 15.4202 16.4969L15.5111 16.5243C15.7219 16.2371 15.9818 15.9592 16.3237 15.8192C15.8917 15.1485 15.7211 14.4497 16.2143 13.7516C17.3407 12.156 19.8211 13.4151 19.245 15.1767C19.2056 15.2972 18.8878 15.7808 18.9151 15.8192C19.2337 15.953 19.5113 16.212 19.6956 16.4961L19.7865 16.5235C19.9973 16.2363 20.2571 15.9585 20.5991 15.8184C20.5162 15.5868 20.348 15.4216 20.2708 15.1743C19.7825 13.6178 21.6812 12.3329 22.9805 13.4175C23.7931 14.096 23.7336 14.9959 23.1913 15.8184C23.5099 15.9522 23.7875 16.2112 23.9717 16.4953L24.0626 16.5227C24.2734 16.2355 24.5333 15.9577 24.8752 15.8176C24.7924 15.586 24.6242 15.4208 24.547 15.1736C23.9926 13.4073 26.4063 12.1787 27.5511 13.7156C28.0821 14.4278 27.8971 15.1243 27.4659 15.8184C29.0613 16.6041 28.766 18.4783 28.7982 19.9417C28.9615 20.0708 29.1482 20.1178 29.3268 20.2477C30.1104 20.8158 30.2496 21.9482 29.5738 22.6439C30.3333 23.1064 30.8281 23.8107 30.8997 24.6919C31.0268 26.2546 30.7991 27.9771 30.8989 29.5571C30.9005 29.7723 30.75 29.8756 30.5964 29.9953H30.2955C30.1152 29.8607 30.0211 29.7903 29.9929 29.5571C29.8135 28.0796 30.1305 26.2632 29.9962 24.7506C29.8159 22.7222 26.7997 22.7222 26.6195 24.7506C26.4851 26.264 26.8029 28.0796 26.6227 29.5571C26.5945 29.7903 26.5004 29.8607 26.3202 29.9953H26.0193C25.8391 29.8607 25.7449 29.7903 25.7168 29.5571C25.5374 28.0796 25.8544 26.2632 25.72 24.7506C25.5599 22.9467 23.0087 22.6658 22.4375 24.3147C22.3168 24.6629 22.4326 25.2608 21.9483 25.3085C21.3618 25.3657 21.476 24.7169 21.365 24.3585C20.8501 22.6995 18.2868 22.9295 18.076 24.6418C17.8894 26.1646 18.2546 28.0428 18.0704 29.5571C18.0422 29.7903 17.9481 29.8607 17.7679 29.9953H17.467C17.2867 29.8607 17.1926 29.7903 17.1645 29.5571C16.985 28.0796 17.302 26.2632 17.1677 24.7506C16.9875 22.7222 13.9712 22.7222 13.791 24.7506C13.6566 26.264 13.9744 28.0796 13.7942 29.5571C13.7661 29.7903 13.6719 29.8607 13.4917 29.9953H13.1908C13.0106 29.8607 12.9165 29.7903 12.8883 29.5571C12.7089 28.0796 13.0259 26.2632 12.8915 24.7506C12.7113 22.7222 9.69505 22.7222 9.51483 24.7506C9.38047 26.264 9.69827 28.0796 9.51805 29.5571C9.48989 29.7903 9.39576 29.8607 9.21554 29.9953H8.91464C8.73442 29.8607 8.64029 29.7903 8.61213 29.5571C8.43271 28.0796 8.74971 26.2632 8.61535 24.7506C8.50593 23.518 7.17601 22.8364 6.06413 23.4445C4.77927 24.1472 5.41728 25.6943 5.23706 26.7993C5.15419 27.3095 4.45987 27.3244 4.34964 26.8486C4.17264 26.0825 4.53469 25.0252 4.20885 24.2325C3.56923 22.6775 1.17169 23.0086 0.971355 24.641C0.7847 26.1639 1.14996 28.042 0.965722 29.5563C0.937563 29.7895 0.843431 29.8599 0.663212 29.9945H0.0606079V24.4884L0.065435 24.4931ZM4.68916 13.9019C3.48637 14.0623 4.02702 15.9139 5.16787 15.3668C5.94828 14.9928 5.55325 13.7861 4.68916 13.9019ZM8.96452 13.9019C7.76172 14.0623 8.30238 15.9139 9.44323 15.3668C10.2236 14.9928 9.8286 13.7861 8.96452 13.9019ZM13.2407 13.9019C12.0379 14.0623 12.5785 15.9139 13.7194 15.3668C14.4998 14.9928 14.1048 13.7861 13.2407 13.9019ZM17.5169 13.9019C16.3141 14.0623 16.8547 15.9139 17.9956 15.3668C18.776 14.9928 18.3809 13.7861 17.5169 13.9019ZM21.7922 13.9019C20.5894 14.0623 21.1301 15.9139 22.2709 15.3668C23.0513 14.9928 22.6563 13.7861 21.7922 13.9019ZM26.0684 13.9019C24.8656 14.0623 25.4062 15.9139 26.5471 15.3668C27.3275 14.9928 26.9325 13.7861 26.0684 13.9019ZM4.44619 16.3654C3.79853 16.464 3.19271 17.0885 3.13478 17.7255C3.07122 18.4157 3.18707 19.1951 3.13639 19.8963C3.16213 20.0239 3.57245 20.1687 3.7398 20.3048C4.4663 20.8949 4.57813 21.9654 3.92082 22.6486C4.26034 22.8787 4.55319 23.1056 4.79295 23.4382C5.0327 23.1048 5.32637 22.8787 5.66508 22.6486C4.98926 21.9529 5.12844 20.8205 5.91207 20.2524C6.09068 20.1225 6.27734 20.0755 6.44066 19.9464C6.36101 19.1912 6.62249 17.9869 6.33928 17.3076C6.03597 16.5806 5.21534 16.2488 4.44538 16.3662L4.44619 16.3654ZM8.72236 16.3654C8.0747 16.464 7.46887 17.0885 7.41094 17.7255C7.34738 18.4157 7.46324 19.1951 7.41255 19.8963C7.4383 20.0239 7.84862 20.1687 8.01596 20.3048C8.74247 20.8949 8.8543 21.9654 8.19698 22.6486C8.5365 22.8787 8.82936 23.1056 9.06911 23.4382C9.30887 23.1048 9.60253 22.8787 9.94124 22.6486C9.26542 21.9529 9.40461 20.8205 10.1882 20.2524C10.3668 20.1225 10.5535 20.0755 10.7168 19.9464C10.6372 19.1912 10.8987 17.9869 10.6155 17.3076C10.3121 16.5806 9.4915 16.2488 8.72155 16.3662L8.72236 16.3654ZM12.9977 16.3654C12.3501 16.464 11.7442 17.0885 11.6863 17.7255C11.6227 18.4157 11.7386 19.1951 11.6879 19.8963C11.7137 20.0239 12.124 20.1687 12.2913 20.3048C13.0178 20.8949 13.1297 21.9654 12.4723 22.6486C12.8119 22.8787 13.1047 23.1056 13.3445 23.4382C13.5842 23.1048 13.8779 22.8787 14.2166 22.6486C13.5408 21.9529 13.68 20.8205 14.4636 20.2524C14.6422 20.1225 14.8289 20.0755 14.9922 19.9464C14.9125 19.1912 15.174 17.9869 14.8908 17.3076C14.5875 16.5806 13.7669 16.2488 12.9969 16.3662L12.9977 16.3654ZM17.2739 16.3654C16.6262 16.464 16.0204 17.0885 15.9625 17.7255C15.8989 18.4157 16.0148 19.1951 15.9641 19.8963C15.9898 20.0239 16.4001 20.1687 16.5675 20.3048C17.294 20.8949 17.4058 21.9654 16.7485 22.6486C17.088 22.8787 17.3809 23.1056 17.6206 23.4382C17.8604 23.1048 18.154 22.8787 18.4928 22.6486C17.8169 21.9529 17.9561 20.8205 18.7398 20.2524C18.9184 20.1225 19.105 20.0755 19.2683 19.9464C19.1887 19.1912 19.4502 17.9869 19.167 17.3076C18.8637 16.5806 18.043 16.2488 17.2731 16.3662L17.2739 16.3654ZM21.55 16.3654C20.9024 16.464 20.2966 17.0885 20.2386 17.7255C20.1751 18.4157 20.2909 19.1951 20.2402 19.8963C20.266 20.0239 20.6763 20.1687 20.8436 20.3048C21.5702 20.8949 21.682 21.9654 21.0247 22.6486C21.3642 22.8787 21.657 23.1056 21.8968 23.4382C22.1366 23.1048 22.4302 22.8787 22.7689 22.6486C22.0931 21.9529 22.2323 20.8205 23.0159 20.2524C23.1945 20.1225 23.3812 20.0755 23.5445 19.9464C23.4649 19.1912 23.7263 17.9869 23.4431 17.3076C23.1398 16.5806 22.3192 16.2488 21.5492 16.3662L21.55 16.3654ZM25.8254 16.3654C25.1777 16.464 24.5719 17.0885 24.514 17.7255C24.4504 18.4157 24.5663 19.1951 24.5156 19.8963C24.5413 20.0239 24.9517 20.1687 25.119 20.3048C25.8455 20.8949 25.9573 21.9654 25.3 22.6486C25.6395 22.8787 25.9324 23.1056 26.1722 23.4382C26.4119 23.1048 26.7056 22.8787 27.0443 22.6486C26.3685 21.9529 26.5077 20.8205 27.2913 20.2524C27.4699 20.1225 27.6565 20.0755 27.8199 19.9464C27.7402 19.1912 28.0017 17.9869 27.7185 17.3076C27.4152 16.5806 26.5945 16.2488 25.8246 16.3662L25.8254 16.3654ZM2.45815 20.8166C1.62706 20.9825 1.68418 22.309 2.6255 22.3309C3.80336 22.3583 3.64808 20.5795 2.45815 20.8166ZM6.73432 20.8166C5.90322 20.9825 5.96035 22.309 6.90167 22.3309C8.07952 22.3583 7.92424 20.5795 6.73432 20.8166ZM11.0097 20.8166C10.1786 20.9825 10.2357 22.309 11.177 22.3309C12.3549 22.3583 12.1996 20.5795 11.0097 20.8166ZM15.2858 20.8166C14.4547 20.9825 14.5119 22.309 15.4532 22.3309C16.631 22.3583 16.4758 20.5795 15.2858 20.8166ZM19.5612 20.8166C18.7301 20.9825 18.7872 22.309 19.7285 22.3309C20.9064 22.3583 20.7511 20.5795 19.5612 20.8166ZM23.8374 20.8166C23.0063 20.9825 23.0634 22.309 24.0047 22.3309C25.1826 22.3583 25.0273 20.5795 23.8374 20.8166ZM28.1135 20.8166C27.2824 20.9825 27.3396 22.309 28.2809 22.3309C29.4587 22.3583 29.3034 20.5795 28.1135 20.8166Z" fill="#FF813D"/>
<path d="M0.0654297 0.300958C0.236798 0.0215836 0.59804 -0.125538 0.850668 0.152272C1.03652 0.358086 0.946409 0.485644 1.31087 0.700066C2.73411 1.53663 7.18325 1.79174 8.94923 1.88095C12.9414 2.08442 17.0695 2.05155 21.0544 1.88252C22.6523 1.81444 28.9446 1.57654 29.9189 0.516946C30.0171 0.409735 30.0147 0.213313 30.1788 0.0967107C30.5738 -0.184229 30.9994 0.1914 30.8723 0.653112C30.7034 1.26586 29.8312 1.60314 29.2745 1.79331L29.2222 1.85982L29.2166 6.07158C28.9454 7.1789 27.6783 5.62395 27.3894 5.69438L25.9348 7.44889C25.7884 7.60305 25.2389 7.46532 25.2389 7.29942V2.525L23.7867 2.67682L22.0175 8.44118C21.8888 8.81759 21.3441 8.85985 21.1735 8.50065L19.3914 2.82394L18.0124 2.87637V7.35733C18.0124 7.59601 17.623 7.71339 17.3937 7.66644C16.9263 7.57018 16.0928 6.82362 15.5996 6.65615C15.5529 6.6405 15.5111 6.61154 15.4572 6.62407L13.6607 7.63514C13.3396 7.77756 13.013 7.63748 12.9575 7.29629C12.9132 7.02474 12.9173 5.8822 12.98 5.6263C13.0484 5.34614 13.3404 5.18571 13.6156 5.30936C13.647 5.32345 13.8578 5.52613 13.8578 5.54256V6.45034C14.2914 6.39008 15.1281 5.62943 15.5047 5.64743C15.8812 5.66543 16.66 6.38538 17.1097 6.45034V2.87716H13.8578V3.84362C13.8578 4.07995 13.3726 4.17699 13.161 4.05256C13.12 4.0283 12.9543 3.81154 12.9543 3.78493V2.87716L11.5753 2.82472L9.7932 8.50143C9.62264 8.86063 9.07715 8.81837 8.94923 8.44196L7.18003 2.6776L5.72783 2.52579V7.3002C5.72783 7.4661 5.17832 7.60383 5.03189 7.44967L3.57728 5.69516C3.28844 5.62395 2.01967 7.17968 1.75015 6.07236L1.74452 1.86061C1.09605 1.52332 0.387249 1.37385 0.066235 0.651547V0.300177L0.0654297 0.300958ZM4.82352 2.40918L2.65526 2.05781V5.16224C2.99398 5.06677 3.35763 4.54949 3.72692 4.61601C4.14609 4.69114 4.4848 5.48935 4.82352 5.74838V2.40918ZM28.3106 2.05781L26.1424 2.40918V5.74838C26.4811 5.49013 26.8198 4.69192 27.239 4.61601C27.5914 4.55262 27.9824 5.05503 28.3106 5.16224V2.05781ZM10.6645 2.82003L8.13503 2.70264L9.34024 6.7438L10.6645 2.82003ZM22.8904 2.70264L20.3006 2.82003L21.5959 6.7438L22.8904 2.70264Z" fill="#FF813D"/>
<path d="M22.0473 29.9999H21.7464C21.6016 29.8833 21.4809 29.8137 21.4488 29.6157C21.3691 29.1282 21.3828 27.3776 21.4439 26.865C21.5139 26.2781 22.2798 26.2781 22.3498 26.865C22.411 27.3776 22.4239 29.129 22.345 29.6157C22.3128 29.8137 22.1922 29.8833 22.0473 29.9999Z" fill="#FF813D"/>
<path d="M4.9434 30H4.6425C4.25712 29.8122 4.28609 29.1118 4.34482 28.744C4.42688 28.2338 5.15902 28.2338 5.24108 28.744C5.29981 29.1118 5.32878 29.8122 4.9434 30Z" fill="#FF813D"/>
<path d="M27.5117 8.98048C27.7072 8.94057 27.8529 9.00396 27.9768 9.14873C28.0347 9.21603 28.7347 10.6199 28.7644 10.7264C28.9189 11.2796 28.3243 11.5903 27.9808 11.1951C27.9229 11.1278 27.2237 9.72235 27.1948 9.6167C27.1183 9.33341 27.1851 9.04621 27.5117 8.98048Z" fill="#FF813D"/>
<path d="M2.87901 8.86458C3.21209 8.76676 3.55241 9.0657 3.47357 9.38029C3.43656 9.52819 2.57811 10.8405 2.44697 10.9642C2.11871 11.2741 1.6392 11.1301 1.64081 10.6981C1.64081 10.4962 2.6827 8.9217 2.87981 8.86458H2.87901Z" fill="#FF813D"/>
<path d="M15.6471 9.80204C15.7935 9.77074 15.8732 9.79187 16.0091 9.83569C16.1934 9.89516 17.2892 10.5134 17.4662 10.6441C17.9658 11.0119 17.6601 11.6121 17.1066 11.4619C16.9633 11.4227 15.6254 10.6589 15.5136 10.5517C15.2698 10.317 15.2979 9.87716 15.6471 9.80282V9.80204Z" fill="#FF813D"/>
<path d="M22.9934 10.68C23.7617 10.4554 23.777 11.7583 23.0079 11.522C22.5815 11.3913 22.6257 10.7872 22.9934 10.68Z" fill="#FF813D"/>
<path d="M7.63776 11.0644C7.25801 11.4643 6.56851 10.8829 6.96274 10.4368C7.35697 9.99073 8.02716 10.6551 7.63776 11.0644Z" fill="#FF813D"/>
</svg>
