<svg width="77" height="60" viewBox="0 0 77 60" fill="none" xmlns="http://www.w3.org/2000/svg">
<g clip-path="url(#clip0_970_1347)">
<path d="M76.9086 6.55226V52.5255C76.3054 53.985 75.0765 55.04 73.4093 55.1275C66.2122 53.9085 59.1012 52.2176 51.8928 51.1043C44.04 53.442 36.4813 56.7455 28.6754 59.2199C26.6784 59.8522 25.4664 60.1729 23.329 59.905C16.6302 59.0669 9.63532 56.8749 2.90275 55.9146C1.40413 55.45 0.39068 54.3039 0.323242 52.7497V7.92794C0.471231 6.18966 2.10661 4.91419 3.82815 4.82309C11.0253 6.04207 18.1363 7.73298 25.3447 8.84628C34.0105 6.14411 42.4196 2.64022 51.1098 0.00728994L53.5076 0L74.3366 4.03594C75.7153 4.46413 76.3878 5.28226 76.9086 6.55226ZM52.9756 2.33228V12.0805C53.8354 11.5958 55.8267 10.191 56.5741 11.4154C57.5183 12.9624 55.0156 13.3815 54.1688 14.0447L52.9756 14.2615C54.0452 14.7736 59.1705 16.6157 57.0893 18.1936C55.896 19.0974 54.21 17.0548 52.9737 16.7378V48.8905C52.9737 48.9561 54.2475 49.0563 54.3018 49.0198C54.3749 48.9688 54.7739 47.6751 54.9406 47.3872C55.7087 46.068 57.1886 45.1005 58.749 44.9821C60.892 44.8181 62.3307 46.2065 64.6367 45.3264C65.3392 45.0586 66.0473 44.4591 66.7254 44.1585C69.6927 42.8375 72.2404 43.6592 74.6588 45.5469V39.8729C73.5741 40.077 72.6619 40.2246 71.5847 39.8802C68.6418 38.94 68.3383 34.72 65.0545 33.7215C63.5615 33.2678 62.0535 33.4464 60.6092 32.6611C56.6509 30.5073 59.562 25.5658 59.0899 22.2077C58.9719 21.375 57.7861 20.043 59.0618 19.3907C60.6804 18.5617 61.3941 21.3732 61.4934 22.4883C61.7032 24.8279 60.5567 27.4517 60.9052 29.6072C61.1655 31.2161 64.5037 31.136 65.8 31.5386C66.924 31.8885 68.0985 32.6319 68.9003 33.4682C70.6462 35.2885 71.3843 39.0839 74.6363 37.3785L74.3647 6.66158C74.0837 6.36093 73.6959 6.29352 73.3156 6.18966C67.0963 4.50422 60.0491 3.98128 53.7511 2.37784L52.9699 2.33775L52.9756 2.33228ZM50.5834 13.099V2.47805L44.1562 4.73563C43.6354 5.15289 43.8489 7.41775 44.0119 8.07006C44.8006 11.2241 47.8016 12.0951 50.5834 13.099ZM26.6522 10.9162V14.1176H28.8215C33.5346 14.1176 40.0874 19.5128 39.6621 24.3723C39.3343 28.1204 34.3064 29.0952 31.9611 26.4842C31.7457 26.2455 31.2605 25.3253 31.1912 25.3089C30.3913 25.1267 27.7368 26.5115 26.6522 26.1908V49.9054C30.2171 49.7833 33.2162 51.3776 34.6717 54.5718L50.5852 49.0308V18.7694C50.0308 19.2942 49.3451 19.7442 48.6258 19.1466C47.6629 18.3449 48.7532 17.0858 49.111 16.2458L49.8359 15.2801C48.446 14.7225 46.7525 14.2142 45.4525 13.5054C42.6631 11.9803 41.2076 8.7333 41.4586 5.67765L26.6522 10.9143V10.9162ZM2.57118 27.9382V52.5984C2.57118 53.0467 3.16126 53.688 3.66892 53.7135C10.5345 54.9854 17.372 56.5141 24.2582 57.6183V52.2358H21.939C21.7461 52.2358 20.8937 51.8568 20.6783 51.7165C18.3199 50.1805 19.781 47.0975 19.6274 44.8837C19.5169 43.282 18.7132 41.4727 17.6736 40.2373C17.1285 39.5905 15.5418 38.581 15.302 38.1802C14.6876 37.1562 15.7647 36.0757 17.0086 36.666C20.0695 38.1164 22.0439 42.5787 22.0271 45.7637C22.0215 46.7367 21.452 48.6864 21.7405 49.5191C21.954 50.1404 23.6849 49.8398 24.2582 49.9072V26.1926C15.9839 25.4802 17.0423 16.1419 24.1889 14.4146L24.2507 11.0692L3.70452 7.13532C2.86341 7.30842 2.64986 7.91701 2.57305 8.66407L2.56369 19.1138C2.61614 19.3288 3.73074 19.2268 3.77757 20.3036C3.83003 21.5171 2.61614 21.4169 2.56369 21.6319C2.50562 21.867 2.5281 25.1959 2.58991 25.3727C3.0676 25.7553 3.727 25.8974 4.26275 26.2181C8.17042 28.5632 7.05394 34.0932 9.52293 35.6493C10.7031 36.3927 12.715 35.2594 13.2245 36.4127C14.2455 38.7232 10.0062 38.4699 8.64436 37.8139C4.60182 35.8679 6.35521 30.0044 2.56931 27.9382H2.57118ZM24.2582 23.864V20.3C24.2582 20.1852 24.6497 19.746 24.7977 19.6622C25.5526 19.2359 26.6503 19.7898 26.6503 20.5915V23.864C28.2782 23.9678 30.0372 22.7725 31.6258 23.0258C33.3454 23.301 33.2593 25.4437 35.2524 25.6114C38.6637 25.8956 36.9665 21.7649 35.7713 20.3036C33.0757 17.0056 28.2145 15.4568 24.0671 16.9145C19.9627 18.3576 19.3633 23.4376 24.2582 23.8658V23.864ZM56.5666 49.6138L73.3981 52.8189C74.8349 52.8061 74.7768 50.749 74.597 49.7523C74.2766 47.9612 71.9444 46.0207 70.103 45.8312C67.5834 45.5724 66.3901 47.584 64.2564 47.8555C62.282 48.107 61.2817 47.4638 59.6163 47.3016C57.7768 47.1212 57.0949 48.0614 56.5666 49.612V49.6138ZM26.6522 52.234V57.4707L32.4856 55.4318C31.3916 53.1578 29.2298 52.0154 26.6522 52.2322V52.234Z" fill="white"/>
<path d="M17.8773 31.5258C17.675 31.3363 16.3656 29.3976 16.3337 29.1625C16.2082 28.2406 17.0549 27.5318 17.9372 27.8998C18.3981 28.093 19.8424 30.0044 19.9173 30.4927C20.1215 31.8173 18.7952 32.3785 17.8792 31.524L17.8773 31.5258Z" fill="white"/>
<path d="M7.01414 19.2358C7.44874 19.1702 9.47938 19.8827 9.88963 20.1651C11.0286 20.9486 10.5153 22.3607 9.22836 22.2732C9.00731 22.2587 6.6245 21.4314 6.4634 21.3148C5.60731 20.6917 6.1337 19.3688 7.01414 19.2358Z" fill="white"/>
<path d="M20.6241 33.6432C21.4783 33.3954 21.9091 33.7379 22.3437 34.3829C22.8683 35.1628 23.9866 36.912 22.9039 37.6026C21.8211 38.2932 21.2404 37.189 20.7927 36.4729C20.345 35.7568 19.2753 34.0331 20.6241 33.6413V33.6432Z" fill="white"/>
<path d="M13.6908 26.1415C13.4698 25.9557 12.4657 24.8952 12.2934 24.6638C11.3174 23.3464 12.5669 22.1894 13.7227 22.8381C13.8613 22.9164 15.3037 24.3358 15.4349 24.518C16.5195 26.0067 14.9497 27.2038 13.6908 26.1415Z" fill="white"/>
<path d="M65.7959 7.88975C66.9218 7.55995 67.6786 9.05589 68.4766 9.59706C68.8868 9.6663 70.9156 6.53229 71.9778 8.36349C72.7027 9.61345 70.983 10.4498 70.3368 11.3007C70.2487 11.7963 73.2235 13.2686 71.8167 14.4766C70.6271 15.497 69.4001 13.6294 68.6058 12.957C67.8547 13.6239 66.3916 15.6391 65.3201 14.4037C64.346 13.2795 66.1893 12.015 66.8824 11.2807C66.2193 10.4771 64.7488 9.76651 65.1216 8.54753C65.174 8.37261 65.618 7.94259 65.7959 7.88975Z" fill="white"/>
<path d="M62.2063 12.1825C61.1816 13.0261 58.0589 12.2572 59.2765 10.5699C59.6549 10.0452 61.3652 10.0725 61.9122 10.2984C62.6278 10.5954 62.7795 11.7087 62.2063 12.1825Z" fill="white"/>
<path d="M33.7929 31.6097C36.5597 31.1578 38.6316 32.6228 39.2928 35.212C40.3587 39.3882 35.3945 41.3215 31.9945 39.8364C28.3791 38.2585 30.7956 32.0998 33.7929 31.6097ZM34.6977 33.7871C33.4238 33.8928 32.0826 36.4346 32.5603 37.3948C33.0679 38.417 36.792 38.0854 37.0936 36.7061C37.3633 35.4707 36.0914 33.6723 34.6977 33.7871Z" fill="white"/>
<path d="M45.9111 34.802C46.7391 34.7073 47.2879 35.212 47.2917 36.0101C47.2917 36.3308 46.8627 38.3806 46.7278 38.6649C46.1864 39.8237 44.433 39.1714 44.4593 38.0672C44.4686 37.6901 44.9089 35.6293 45.0775 35.314C45.2461 34.9988 45.5683 34.8403 45.9092 34.802H45.9111Z" fill="white"/>
<path d="M47.8515 21.4133C48.6195 21.2785 49.2564 22.0729 49.2415 22.7653C49.234 23.1552 48.8069 25.0648 48.6195 25.3745C48.007 26.3876 46.3959 25.9139 46.4053 24.6839C46.4109 23.8877 46.8942 21.5827 47.8515 21.4133Z" fill="white"/>
<path d="M38.1361 45.0021C38.7374 44.9784 39.3088 44.8217 39.734 45.3993C40.3241 46.1992 39.8839 47.0338 38.9528 47.2506C37.9282 47.4893 35.1894 47.8901 35.358 46.2302C35.4779 45.0331 37.1732 45.0404 38.138 45.0021H38.1361Z" fill="white"/>
<path d="M47.8477 28.4156C48.346 28.9003 48.05 31.2271 47.8215 31.8721C47.4075 33.0382 45.5735 32.7175 45.5024 31.4949C45.4799 31.1141 45.7384 29.3467 45.8676 28.9549C46.1655 28.0566 47.1733 27.7596 47.8477 28.4156Z" fill="white"/>
<path d="M28.939 45.6453C28.3133 44.9018 28.8603 43.6974 30.0162 43.7849C30.4845 43.8213 32.8729 44.818 33.0171 45.2389C33.9238 47.8864 29.7033 46.5508 28.939 45.6434V45.6453Z" fill="white"/>
<path d="M43.9627 41.1994C44.5078 41.1028 45.229 41.644 45.3246 42.1578C45.4669 42.9231 43.8259 45.1934 43.0317 45.2645C42.3273 45.3283 41.6136 44.9292 41.6529 44.1822C41.681 43.6629 43.3913 41.3014 43.9627 41.1994Z" fill="white"/>
</g>
<defs>
<clipPath id="clip0_970_1347">
<rect width="77" height="60" fill="white"/>
</clipPath>
</defs>
</svg>
