<svg width="21" height="30" viewBox="0 0 21 30" fill="none" xmlns="http://www.w3.org/2000/svg">
<path d="M38.7617 3.27613V26.2628C38.4601 26.9925 37.8457 27.52 37.0121 27.5637C33.4135 26.9543 29.858 26.1088 26.2538 25.5522C22.3274 26.721 18.5481 28.3728 14.6451 29.61C13.6466 29.9261 13.0406 30.0864 11.9719 29.9525C8.62251 29.5334 5.12509 28.4374 1.75881 27.9573C1.0095 27.725 0.502774 27.152 0.469055 26.3748V3.96397C0.54305 3.09483 1.36074 2.4571 2.22151 2.41154C5.82008 3.02103 9.37557 3.86649 12.9798 4.42314C17.3127 3.07205 21.5172 1.32011 25.8623 0.00364497L27.0612 0L37.4757 2.01797C38.1651 2.23207 38.5013 2.64113 38.7617 3.27613ZM26.7952 1.16614V6.04025C27.2251 5.79791 28.2208 5.09549 28.5945 5.70771C29.0666 6.48119 27.8152 6.69073 27.3918 7.02236L26.7952 7.13077C27.33 7.38678 29.8927 8.30784 28.8521 9.09681C28.2554 9.54869 27.4125 8.52741 26.7943 8.36888V24.4452C26.7943 24.478 27.4312 24.5281 27.4583 24.5099C27.4949 24.4844 27.6944 23.8376 27.7777 23.6936C28.1618 23.034 28.9017 22.5503 29.6819 22.491C30.7534 22.409 31.4728 23.1033 32.6258 22.6632C32.977 22.5293 33.3311 22.2296 33.6701 22.0792C35.1538 21.4187 36.4276 21.8296 37.6368 22.7735V19.9365C37.0945 20.0385 36.6384 20.1123 36.0998 19.9401C34.6283 19.47 34.4766 17.36 32.8347 16.8608C32.0882 16.6339 31.3342 16.7232 30.612 16.3305C28.6329 15.2537 30.0884 12.7829 29.8524 11.1038C29.7934 10.6875 29.2005 10.0215 29.8384 9.69537C30.6476 9.28084 31.0045 10.6866 31.0541 11.2442C31.159 12.4139 30.5858 13.7258 30.76 14.8036C30.8902 15.6081 32.5593 15.568 33.2074 15.7693C33.7694 15.9442 34.3567 16.316 34.7576 16.7341C35.6305 17.6443 35.9996 19.542 37.6256 18.6892L37.4898 3.33079C37.3493 3.18047 37.1554 3.14676 36.9652 3.09483C33.8556 2.25211 30.332 1.99064 27.183 1.18892L26.7924 1.16888L26.7952 1.16614ZM25.5991 6.54952V1.23903L22.3855 2.36781C22.1251 2.57644 22.2319 3.70888 22.3134 4.03503C22.7077 5.61205 24.2082 6.04753 25.5991 6.54952ZM13.6335 5.45809V7.0588H14.7182C17.0748 7.0588 20.3511 9.75641 20.1385 12.1862C19.9746 14.0602 17.4606 14.5476 16.288 13.2421C16.1803 13.1227 15.9377 12.6626 15.903 12.6544C15.5031 12.5633 14.1758 13.2557 13.6335 13.0954V24.9527C15.416 24.8916 16.9155 25.6888 17.6433 27.2859L25.6001 24.5154V9.3847C25.3228 9.64708 24.98 9.87211 24.6203 9.57329C24.1389 9.17243 24.684 8.54289 24.8629 8.1229L25.2254 7.64005C24.5304 7.36127 23.6837 7.10708 23.0337 6.75268C21.639 5.99014 20.9112 4.36665 21.0367 2.83882L13.6335 5.45717V5.45809ZM1.59302 13.9691V26.2992C1.59302 26.5233 1.88807 26.844 2.14189 26.8568C5.57468 27.4927 8.99342 28.257 12.4365 28.8091V26.1179H11.2769C11.1805 26.1179 10.7543 25.9284 10.6466 25.8583C9.46736 25.0902 10.1979 23.5488 10.1211 22.4418C10.0659 21.641 9.66405 20.7364 9.14422 20.1187C8.87166 19.7952 8.07832 19.2905 7.95843 19.0901C7.65121 18.5781 8.18978 18.0378 8.81171 18.333C10.3422 19.0582 11.3294 21.2894 11.321 22.8819C11.3182 23.3684 11.0334 24.3432 11.1777 24.7595C11.2844 25.0702 12.1499 24.9199 12.4365 24.9536V13.0963C8.29937 12.7401 8.82857 8.07097 12.4019 7.2073L12.4328 5.53461L2.15969 3.56766C1.73914 3.65421 1.63236 3.9585 1.59396 4.33203L1.58928 9.55689C1.6155 9.66439 2.1728 9.61338 2.19622 10.1518C2.22245 10.7586 1.6155 10.7085 1.58928 10.816C1.56024 10.9335 1.57148 12.598 1.60239 12.6863C1.84123 12.8777 2.17093 12.9487 2.43881 13.1091C4.39264 14.2816 3.8344 17.0466 5.0689 17.8246C5.65898 18.1964 6.66493 17.6297 6.9197 18.2064C7.43017 19.3616 5.31055 19.2349 4.62961 18.907C2.60834 17.934 3.48504 15.0022 1.59209 13.9691H1.59302ZM12.4365 11.932V10.15C12.4365 10.0926 12.6323 9.87302 12.7063 9.83111C13.0837 9.61793 13.6326 9.89489 13.6326 10.2957V11.932C14.4465 11.9839 15.326 11.3863 16.1203 11.5129C16.9802 11.6505 16.9371 12.7219 17.9337 12.8057C19.6393 12.9478 18.7907 10.8825 18.1931 10.1518C16.8453 8.50281 14.4147 7.72842 12.341 8.45726C10.2888 9.17881 9.98907 11.7188 12.4365 11.9329V11.932ZM28.5907 24.8069L37.0065 26.4094C37.7249 26.4031 37.6958 25.3745 37.6059 24.8762C37.4457 23.9806 36.2796 23.0103 35.3589 22.9156C34.0991 22.7862 33.5025 23.792 32.4357 23.9278C31.4484 24.0535 30.9483 23.7319 30.1156 23.6508C29.1958 23.5606 28.8549 24.0307 28.5907 24.806V24.8069ZM13.6335 26.117V28.7353L16.5502 27.7159C16.0032 26.5789 14.9224 26.0077 13.6335 26.1161V26.117Z" fill="#FF813D"/>
<path d="M9.24629 15.763C9.14513 15.6682 8.49042 14.6989 8.4745 14.5813C8.41175 14.1203 8.83511 13.7659 9.27626 13.95C9.50668 14.0466 10.2288 15.0022 10.2663 15.2464C10.3684 15.9087 9.70525 16.1893 9.24723 15.762L9.24629 15.763Z" fill="#FF813D"/>
<path d="M3.81484 9.61784C4.03214 9.58505 5.04746 9.94127 5.25258 10.0825C5.82206 10.4742 5.56542 11.1803 4.92195 11.1366C4.81143 11.1293 3.62002 10.7157 3.53947 10.6573C3.11142 10.3458 3.37462 9.68435 3.81484 9.61784Z" fill="#FF813D"/>
<path d="M10.6195 16.8217C11.0466 16.6978 11.262 16.8691 11.4793 17.1916C11.7416 17.5815 12.3008 18.4561 11.7594 18.8014C11.218 19.1467 10.9276 18.5946 10.7038 18.2366C10.4799 17.8785 9.94511 17.0167 10.6195 16.8208V16.8217Z" fill="#FF813D"/>
<path d="M7.15294 13.0708C7.04242 12.9778 6.54038 12.4476 6.45421 12.3319C5.96622 11.6732 6.59096 11.0947 7.16886 11.419C7.23817 11.4582 7.95939 12.1679 8.02495 12.259C8.56727 13.0033 7.78236 13.6019 7.15294 13.0708Z" fill="#FF813D"/>
<path d="M17.204 15.8048C18.5874 15.5788 19.6234 16.3113 19.954 17.6059C20.4869 19.694 18.0048 20.6607 16.3048 19.9182C14.4971 19.1292 15.7054 16.0499 17.204 15.8048ZM17.6564 16.8935C17.0195 16.9463 16.3489 18.2172 16.5877 18.6974C16.8415 19.2085 18.7036 19.0426 18.8544 18.353C18.9893 17.7353 18.3533 16.8361 17.6564 16.8935Z" fill="#FF813D"/>
<path d="M19.3761 22.5009C19.6768 22.4891 19.9625 22.4107 20.1751 22.6995C20.4701 23.0995 20.25 23.5168 19.7845 23.6252C19.2722 23.7445 17.9028 23.9449 17.9871 23.115C18.047 22.5164 18.8947 22.5201 19.3771 22.5009H19.3761Z" fill="#FF813D"/>
<path d="M14.7772 22.8226C14.4644 22.4509 14.7379 21.8487 15.3158 21.8924C15.5499 21.9106 16.7442 22.409 16.8163 22.6194C17.2696 23.9432 15.1594 23.2754 14.7772 22.8217V22.8226Z" fill="#FF813D"/>
</svg>
