<svg width="77" height="60" viewBox="0 0 77 60" fill="none" xmlns="http://www.w3.org/2000/svg">
<path d="M76.9081 6.55226V52.5255C76.3049 53.985 75.076 55.04 73.4088 55.1275C66.2117 53.9085 59.1007 52.2176 51.8923 51.1043C44.0395 53.442 36.4808 56.7455 28.6749 59.2199C26.6779 59.8522 25.4659 60.1729 23.3285 59.905C16.6297 59.0669 9.63483 56.8749 2.90226 55.9146C1.40364 55.45 0.390192 54.3039 0.322754 52.7497V7.92794C0.470743 6.18966 2.10612 4.91419 3.82766 4.82309C11.0248 6.04207 18.1358 7.73298 25.3442 8.84628C34.01 6.14411 42.4191 2.64022 51.1093 0.00728994L53.5071 0L74.3361 4.03594C75.7148 4.46413 76.3873 5.28226 76.9081 6.55226ZM52.9751 2.33228V12.0805C53.8349 11.5958 55.8262 10.191 56.5736 11.4154C57.5178 12.9624 55.0151 13.3815 54.1683 14.0447L52.9751 14.2615C54.0447 14.7736 59.17 16.6157 57.0888 18.1936C55.8955 19.0974 54.2095 17.0548 52.9732 16.7378V48.8905C52.9732 48.9561 54.247 49.0563 54.3013 49.0198C54.3744 48.9688 54.7734 47.6751 54.9401 47.3872C55.7082 46.068 57.1881 45.1005 58.7485 44.9821C60.8915 44.8181 62.3302 46.2065 64.6362 45.3264C65.3387 45.0586 66.0468 44.4591 66.7249 44.1585C69.6922 42.8375 72.2399 43.6592 74.6583 45.5469V39.8729C73.5736 40.077 72.6614 40.2246 71.5842 39.8802C68.6413 38.94 68.3378 34.72 65.054 33.7215C63.561 33.2678 62.053 33.4464 60.6087 32.6611C56.6504 30.5073 59.5615 25.5658 59.0894 22.2077C58.9714 21.375 57.7856 20.043 59.0613 19.3907C60.6799 18.5617 61.3936 21.3732 61.4929 22.4883C61.7027 24.8279 60.5562 27.4517 60.9047 29.6072C61.165 31.2161 64.5032 31.136 65.7995 31.5386C66.9235 31.8885 68.098 32.6319 68.8998 33.4682C70.6457 35.2885 71.3838 39.0839 74.6358 37.3785L74.3642 6.66158C74.0832 6.36093 73.6954 6.29352 73.3151 6.18966C67.0958 4.50422 60.0486 3.98128 53.7506 2.37784L52.9694 2.33775L52.9751 2.33228ZM50.5829 13.099V2.47805L44.1557 4.73563C43.6349 5.15289 43.8484 7.41775 44.0114 8.07006C44.8001 11.2241 47.8011 12.0951 50.5829 13.099ZM26.6517 10.9162V14.1176H28.821C33.5341 14.1176 40.0869 19.5128 39.6616 24.3723C39.3338 28.1204 34.3059 29.0952 31.9606 26.4842C31.7452 26.2455 31.26 25.3253 31.1907 25.3089C30.3908 25.1267 27.7363 26.5115 26.6517 26.1908V49.9054C30.2166 49.7833 33.2157 51.3776 34.6712 54.5718L50.5847 49.0308V18.7694C50.0303 19.2942 49.3446 19.7442 48.6253 19.1466C47.6624 18.3449 48.7527 17.0858 49.1105 16.2458L49.8354 15.2801C48.4455 14.7225 46.752 14.2142 45.452 13.5054C42.6626 11.9803 41.2071 8.7333 41.4581 5.67765L26.6517 10.9143V10.9162ZM2.57069 27.9382V52.5984C2.57069 53.0467 3.16077 53.688 3.66843 53.7135C10.534 54.9854 17.3715 56.5141 24.2577 57.6183V52.2358H21.9385C21.7456 52.2358 20.8932 51.8568 20.6778 51.7165C18.3194 50.1805 19.7805 47.0975 19.6269 44.8837C19.5164 43.282 18.7127 41.4727 17.6731 40.2373C17.128 39.5905 15.5413 38.581 15.3015 38.1802C14.6871 37.1562 15.7642 36.0757 17.0081 36.666C20.069 38.1164 22.0434 42.5787 22.0266 45.7637C22.021 46.7367 21.4515 48.6864 21.74 49.5191C21.9535 50.1404 23.6844 49.8398 24.2577 49.9072V26.1926C15.9834 25.4802 17.0418 16.1419 24.1884 14.4146L24.2502 11.0692L3.70403 7.13532C2.86292 7.30842 2.64937 7.91701 2.57256 8.66407L2.5632 19.1138C2.61565 19.3288 3.73025 19.2268 3.77708 20.3036C3.82954 21.5171 2.61565 21.4169 2.5632 21.6319C2.50513 21.867 2.52761 25.1959 2.58942 25.3727C3.06711 25.7553 3.72651 25.8974 4.26226 26.2181C8.16993 28.5632 7.05345 34.0932 9.52244 35.6493C10.7026 36.3927 12.7145 35.2594 13.224 36.4127C14.245 38.7232 10.0057 38.4699 8.64387 37.8139C4.60133 35.8679 6.35472 30.0044 2.56882 27.9382H2.57069ZM24.2577 23.864V20.3C24.2577 20.1852 24.6492 19.746 24.7972 19.6622C25.5521 19.2359 26.6498 19.7898 26.6498 20.5915V23.864C28.2777 23.9678 30.0367 22.7725 31.6253 23.0258C33.3449 23.301 33.2588 25.4437 35.2519 25.6114C38.6632 25.8956 36.966 21.7649 35.7708 20.3036C33.0752 17.0056 28.214 15.4568 24.0666 16.9145C19.9622 18.3576 19.3628 23.4376 24.2577 23.8658V23.864ZM56.5661 49.6138L73.3976 52.8189C74.8344 52.8061 74.7763 50.749 74.5965 49.7523C74.2761 47.9612 71.9439 46.0207 70.1025 45.8312C67.5829 45.5724 66.3896 47.584 64.2559 47.8555C62.2815 48.107 61.2812 47.4638 59.6158 47.3016C57.7763 47.1212 57.0944 48.0614 56.5661 49.612V49.6138ZM26.6517 52.234V57.4707L32.4851 55.4318C31.3911 53.1578 29.2293 52.0154 26.6517 52.2322V52.234Z" fill="#FF894E"/>
<path d="M17.8773 31.5258C17.675 31.3363 16.3656 29.3976 16.3337 29.1625C16.2082 28.2406 17.0549 27.5318 17.9372 27.8998C18.3981 28.093 19.8424 30.0044 19.9173 30.4927C20.1215 31.8173 18.7952 32.3785 17.8792 31.524L17.8773 31.5258Z" fill="#FF894E"/>
<path d="M7.01414 19.2358C7.44874 19.1702 9.47938 19.8827 9.88963 20.1651C11.0286 20.9486 10.5153 22.3607 9.22836 22.2732C9.00731 22.2587 6.6245 21.4314 6.4634 21.3148C5.60731 20.6917 6.1337 19.3688 7.01414 19.2358Z" fill="#FF894E"/>
<path d="M20.6236 33.6432C21.4778 33.3954 21.9086 33.7379 22.3432 34.3829C22.8678 35.1628 23.9861 36.912 22.9034 37.6026C21.8206 38.2932 21.2399 37.189 20.7922 36.4729C20.3445 35.7568 19.2748 34.0331 20.6236 33.6413V33.6432Z" fill="#FF894E"/>
<path d="M13.6903 26.1415C13.4693 25.9557 12.4652 24.8952 12.2929 24.6638C11.3169 23.3464 12.5664 22.1894 13.7222 22.8381C13.8608 22.9164 15.3032 24.3358 15.4344 24.518C16.519 26.0067 14.9492 27.2038 13.6903 26.1415Z" fill="#FF894E"/>
<path d="M65.7959 7.88975C66.9218 7.55995 67.6786 9.05589 68.4766 9.59706C68.8868 9.6663 70.9156 6.53229 71.9778 8.36349C72.7027 9.61345 70.983 10.4498 70.3368 11.3007C70.2487 11.7963 73.2235 13.2686 71.8167 14.4766C70.6271 15.497 69.4001 13.6294 68.6058 12.957C67.8547 13.6239 66.3916 15.6391 65.3201 14.4037C64.346 13.2795 66.1893 12.015 66.8824 11.2807C66.2193 10.4771 64.7488 9.76651 65.1216 8.54753C65.174 8.37261 65.618 7.94259 65.7959 7.88975Z" fill="#FF894E"/>
<path d="M62.2068 12.1825C61.1821 13.0261 58.0594 12.2572 59.277 10.5699C59.6554 10.0452 61.3657 10.0725 61.9127 10.2984C62.6283 10.5954 62.78 11.7087 62.2068 12.1825Z" fill="#FF894E"/>
<path d="M33.7929 31.6097C36.5597 31.1578 38.6316 32.6228 39.2928 35.212C40.3587 39.3882 35.3945 41.3215 31.9945 39.8364C28.3791 38.2585 30.7956 32.0998 33.7929 31.6097ZM34.6977 33.7871C33.4238 33.8928 32.0826 36.4346 32.5603 37.3948C33.0679 38.417 36.792 38.0854 37.0936 36.7061C37.3633 35.4707 36.0914 33.6723 34.6977 33.7871Z" fill="#FF894E"/>
<path d="M45.9111 34.802C46.7391 34.7073 47.2879 35.212 47.2917 36.0101C47.2917 36.3308 46.8627 38.3806 46.7278 38.6649C46.1864 39.8237 44.433 39.1714 44.4593 38.0672C44.4686 37.6901 44.9089 35.6293 45.0775 35.314C45.2461 34.9988 45.5683 34.8403 45.9092 34.802H45.9111Z" fill="#FF894E"/>
<path d="M47.8515 21.4133C48.6195 21.2785 49.2564 22.0729 49.2415 22.7653C49.234 23.1552 48.8069 25.0648 48.6195 25.3745C48.007 26.3876 46.3959 25.9139 46.4053 24.6839C46.4109 23.8877 46.8942 21.5827 47.8515 21.4133Z" fill="#FF894E"/>
<path d="M38.1366 45.0021C38.7379 44.9784 39.3093 44.8217 39.7345 45.3993C40.3246 46.1992 39.8844 47.0338 38.9533 47.2506C37.9287 47.4893 35.1899 47.8901 35.3585 46.2302C35.4784 45.0331 37.1737 45.0404 38.1385 45.0021H38.1366Z" fill="#FF894E"/>
<path d="M47.8477 28.4156C48.346 28.9003 48.05 31.2271 47.8215 31.8721C47.4075 33.0382 45.5735 32.7175 45.5024 31.4949C45.4799 31.1141 45.7384 29.3467 45.8676 28.9549C46.1655 28.0566 47.1733 27.7596 47.8477 28.4156Z" fill="#FF894E"/>
<path d="M28.939 45.6453C28.3133 44.9018 28.8603 43.6974 30.0162 43.7849C30.4845 43.8213 32.8729 44.818 33.0171 45.2389C33.9238 47.8864 29.7033 46.5508 28.939 45.6434V45.6453Z" fill="#FF894E"/>
<path d="M43.9627 41.1994C44.5078 41.1028 45.229 41.644 45.3246 42.1578C45.4669 42.9231 43.8259 45.1934 43.0317 45.2645C42.3273 45.3283 41.6136 44.9292 41.6529 44.1822C41.681 43.6629 43.3913 41.3014 43.9627 41.1994Z" fill="#FF894E"/>
</svg>
