<svg width="29" height="30" viewBox="0 0 29 30" fill="none" xmlns="http://www.w3.org/2000/svg">
<g clip-path="url(#clip0_970_1377)">
<mask id="mask0_970_1377" style="mask-type:luminance" maskUnits="userSpaceOnUse" x="0" y="0" width="29" height="30">
<path d="M29 0H0V30H29V0Z" fill="white"/>
</mask>
<g mask="url(#mask0_970_1377)">
<path d="M15.6217 0C19.3575 1.32253 23.1979 2.38087 26.9241 3.71825C26.9908 3.77687 27.0759 3.93632 27.0936 4.02074C27.1876 4.47643 27.1346 6.13819 26.9908 6.58529C26.5553 7.93908 24.93 8.56205 23.6486 7.9C23.3433 7.74211 23.1569 7.49121 22.8765 7.31768C21.8136 8.47685 20.132 8.43621 19.1109 7.25515C19.0097 7.60611 18.0142 8.13293 17.6969 8.13293H16.8252V14.5103H18.6891V11.2048C18.6891 10.896 19.3575 10.8319 19.5913 10.8835C19.4041 9.67276 20.7651 9.66807 20.553 10.8835H21.4553C21.4127 10.4943 21.4753 9.92366 22.0056 9.97916C22.6499 10.0464 22.3334 10.8022 22.4177 10.8843C22.4619 10.9273 23.0171 10.7819 23.2412 11.0195C23.2629 11.0422 23.3802 11.2509 23.3802 11.2649V14.5119H28.1011C28.2128 14.5119 28.608 14.7667 28.6988 14.8667C29.1319 15.3427 29.115 16.6614 28.5486 17.053C28.4883 17.0944 28.1405 17.2617 28.1019 17.2617H27.1097L27.0832 25.1046C26.8992 25.6901 25.6708 25.3743 25.1855 25.4524C25.0642 27.3526 23.6068 29.1035 21.7734 29.71C18.5967 30.7598 15.3011 28.665 14.9621 25.4532H6.54232V26.3896C6.54232 26.4193 6.96893 26.5499 7.1031 26.6343C9.06985 27.8677 7.2911 30.8473 5.19981 29.7733C3.67895 28.9917 3.98184 26.8594 5.57983 26.3607V25.454H4.10637C3.95372 25.454 3.67815 25.071 3.71591 24.8983V17.2632H2.72369C2.64817 17.2632 2.25691 17.0389 2.183 16.9701C1.61016 16.437 1.92671 14.837 1.8544 14.0718C1.79977 13.495 1.34584 13.6841 0.907982 13.5294C-0.466658 13.0432 -0.228044 11.0351 1.28076 10.8866C3.36401 10.6811 4.9154 12.5867 4.67759 14.5134H7.92499C7.58033 14.0265 7.05007 12.7829 8.01256 12.6969C8.90515 12.6172 10.7345 12.6172 11.6263 12.6969C12.5639 12.7805 12.0417 14.0265 11.7139 14.5134H13.9988V12.2021C13.9988 12.0607 14.3306 11.8301 14.5009 11.8395C14.6511 11.8473 14.9613 12.0747 14.9613 12.2021V14.5134H15.8635V7.69756C15.8635 7.66629 15.4473 7.37631 15.4128 7.25984C15.281 7.44665 15.1605 7.58891 14.9605 7.70928L14.958 10.4434C14.8721 10.975 14.1273 10.9937 14.0116 10.4927C13.8662 9.85878 14.0936 8.8153 13.9988 8.13528H13.1271C12.7551 8.13528 11.8842 7.58657 11.6841 7.25906C10.8165 8.44793 8.81919 8.49717 7.98444 7.2575C6.51982 8.94114 3.90873 8.17358 3.71671 5.94044C3.67895 5.50585 3.66047 4.49207 3.73037 4.08327C3.77697 3.81126 3.90792 3.65962 4.18189 3.58615L15.1404 0H15.6217ZM7.14247 3.62758H23.6807L15.3565 0.939527L7.14247 3.62758ZM7.44294 4.56398H4.67679V6.11474C4.67679 6.13741 4.81899 6.48759 4.8447 6.53605C5.31791 7.42086 6.64917 7.4873 7.22843 6.66658C7.27101 6.60561 7.44294 6.27029 7.44294 6.23121V4.56398ZM11.2318 4.56398H8.40543V6.05612C8.40543 6.3336 8.79991 6.86277 9.03611 7.02222C9.7632 7.51153 10.8349 7.15979 11.1145 6.35236C11.1394 6.28123 11.2318 5.92481 11.2318 5.88103V4.56398ZM14.9605 4.56398H12.1341V5.9975C12.1341 6.6275 12.9166 7.25984 13.5473 7.25984C14.1779 7.25984 14.9605 6.6275 14.9605 5.9975V4.56398ZM18.6891 4.56398H15.9229V6.23121C15.9229 6.27029 16.0941 6.60561 16.1375 6.66658C16.7095 7.47792 18.0705 7.4193 18.5212 6.53605C18.5509 6.47821 18.6891 6.08582 18.6891 6.05612V4.56398ZM22.4177 4.56398H19.6516V6.23121C19.6516 6.30156 19.8428 6.60874 19.9023 6.68925C20.512 7.50293 21.8313 7.40992 22.2699 6.49775C22.3012 6.43209 22.4169 6.15383 22.4169 6.11474L22.4177 4.56398ZM26.1464 4.56398H23.3802V6.17259C23.3802 6.38519 23.7112 6.8276 23.892 6.96204C24.5813 7.47714 25.5744 7.28173 25.9777 6.53448C26.0098 6.47586 26.1472 6.19994 26.1472 6.17259L26.1464 4.56398ZM26.1464 17.2601H10.6606C10.3553 17.2601 10.0492 16.43 10.7867 16.3292L27.8609 16.3237C28.1035 16.3393 28.0312 15.5233 27.9549 15.4717L4.16984 15.4428C3.46926 15.3349 3.77215 14.0663 3.70868 13.5512C3.58174 12.5156 2.40474 11.6605 1.34343 11.8223C0.858974 11.8957 0.818803 12.5429 1.24622 12.6703C1.619 12.7813 1.88895 12.6656 2.29226 12.94C2.48829 13.0737 2.81368 13.495 2.81368 13.7201V16.2362C2.81368 16.2424 2.89723 16.3237 2.90366 16.3237H8.9172C9.11002 16.3237 9.31007 16.6332 9.31168 16.8208C9.31248 16.9732 9.11726 17.2593 8.97746 17.2593H4.67759V24.5145H14.9613C15.1219 23.0153 15.9928 21.6037 17.2879 20.7814C17.6977 20.5211 19.6524 19.5034 19.5913 20.561C19.5664 21.001 18.7486 21.0854 18.4079 21.2277C14.7556 22.7464 15.232 28.092 19.098 28.944C24.1997 30.068 26.4075 23.02 21.575 21.1511C21.2102 21.0096 20.6446 21.0596 20.6101 20.5641C20.5651 19.92 21.2343 20.0802 21.6489 20.2014C23.5088 20.7439 25.0762 22.6206 25.1839 24.5145H26.1464V17.2601ZM20.553 11.8183H19.6508V14.5095H20.553V11.8183ZM22.4177 11.8183H21.5155V14.5095H22.4177V11.8183ZM11.1113 13.6325H8.52514C8.94291 14.8159 10.6702 14.7925 11.1113 13.6325ZM5.86343 27.2791C4.59645 27.5074 5.19419 29.5224 6.46197 28.9729C7.43169 28.5524 7.01071 27.0728 5.86343 27.2791Z" fill="#FF813D"/>
<path d="M19.8192 22.251C23.3655 21.9165 24.0451 27.0456 20.6282 27.6599C16.7751 28.3525 16.0102 22.6106 19.8192 22.251ZM21.8759 24.5154C21.3561 22.7114 18.8278 22.7341 18.2678 24.5154H21.8759ZM21.8759 25.451H18.3281C18.7868 27.2402 21.3722 27.198 21.8759 25.451Z" fill="#FF813D"/>
</g>
</g>
<defs>
<clipPath id="clip0_970_1377">
<rect width="29" height="30" fill="white"/>
</clipPath>
</defs>
</svg>
