<svg width="29" height="30" viewBox="0 0 29 30" fill="none" xmlns="http://www.w3.org/2000/svg">
<g clip-path="url(#clip0_583_5249)">
<path d="M15.6216 0C19.3574 1.32253 23.1978 2.38087 26.924 3.71825C26.9907 3.77687 27.0758 3.93632 27.0935 4.02074C27.1875 4.47643 27.1345 6.13819 26.9907 6.58529C26.5552 7.93908 24.9299 8.56205 23.6485 7.9C23.3432 7.74211 23.1568 7.49121 22.8764 7.31768C21.8135 8.47685 20.1319 8.43621 19.1108 7.25515C19.0096 7.60611 18.0141 8.13293 17.6968 8.13293H16.8251V14.5103H18.689V11.2048C18.689 10.896 19.3574 10.8319 19.5912 10.8835C19.404 9.67276 20.765 9.66807 20.5529 10.8835H21.4552C21.4126 10.4943 21.4752 9.92366 22.0055 9.97916C22.6498 10.0464 22.3333 10.8022 22.4176 10.8843C22.4618 10.9273 23.017 10.7819 23.2411 11.0195C23.2628 11.0422 23.3801 11.2509 23.3801 11.2649V14.5119H28.101C28.2127 14.5119 28.6079 14.7667 28.6987 14.8667C29.1318 15.3427 29.1149 16.6614 28.5485 17.053C28.4882 17.0944 28.1404 17.2617 28.1018 17.2617H27.1096L27.0831 25.1046C26.8991 25.6901 25.6707 25.3743 25.1854 25.4524C25.0641 27.3526 23.6067 29.1035 21.7733 29.71C18.5966 30.7598 15.301 28.665 14.962 25.4532H6.5422V26.3896C6.5422 26.4193 6.96881 26.5499 7.10298 26.6343C9.06973 27.8677 7.29098 30.8473 5.19969 29.7733C3.67883 28.9917 3.98172 26.8594 5.57971 26.3607V25.454H4.10625C3.9536 25.454 3.67803 25.071 3.71579 24.8983V17.2632H2.72357C2.64805 17.2632 2.25679 17.0389 2.18288 16.9701C1.61004 16.437 1.92659 14.837 1.85428 14.0718C1.79965 13.495 1.34572 13.6841 0.907859 13.5294C-0.466781 13.0432 -0.228167 11.0351 1.28064 10.8866C3.36389 10.6811 4.91528 12.5867 4.67747 14.5134H7.92487C7.58021 14.0265 7.04995 12.7829 8.01244 12.6969C8.90503 12.6172 10.7344 12.6172 11.6262 12.6969C12.5638 12.7805 12.0416 14.0265 11.7138 14.5134H13.9987V12.2021C13.9987 12.0607 14.3305 11.8301 14.5008 11.8395C14.651 11.8473 14.9612 12.0747 14.9612 12.2021V14.5134H15.8634V7.69756C15.8634 7.66629 15.4472 7.37631 15.4127 7.25984C15.2809 7.44665 15.1604 7.58891 14.9604 7.70928L14.9579 10.4434C14.872 10.975 14.1272 10.9937 14.0115 10.4927C13.8661 9.85878 14.0935 8.8153 13.9987 8.13528H13.127C12.755 8.13528 11.8841 7.58657 11.684 7.25906C10.8164 8.44793 8.81907 8.49717 7.98432 7.2575C6.5197 8.94114 3.90861 8.17358 3.71659 5.94044C3.67883 5.50585 3.66035 4.49207 3.73025 4.08327C3.77685 3.81126 3.9078 3.65962 4.18177 3.58615L15.1403 0H15.6216ZM7.14235 3.62758H23.6806L15.3564 0.939527L7.14235 3.62758ZM7.44282 4.56398H4.67667V6.11474C4.67667 6.13741 4.81887 6.48759 4.84458 6.53605C5.31779 7.42086 6.64905 7.4873 7.22831 6.66658C7.27089 6.60561 7.44282 6.27029 7.44282 6.23121V4.56398ZM11.2317 4.56398H8.40531V6.05612C8.40531 6.3336 8.79979 6.86277 9.03599 7.02222C9.76308 7.51153 10.8348 7.15979 11.1144 6.35236C11.1393 6.28123 11.2317 5.92481 11.2317 5.88103V4.56476V4.56398ZM14.9604 4.56398H12.134V5.9975C12.134 6.6275 12.9165 7.25984 13.5472 7.25984C14.1778 7.25984 14.9604 6.6275 14.9604 5.9975V4.56398ZM18.689 4.56398H15.9228V6.23121C15.9228 6.27029 16.094 6.60561 16.1374 6.66658C16.7094 7.47792 18.0704 7.4193 18.5211 6.53605C18.5508 6.47821 18.689 6.08582 18.689 6.05612V4.56398ZM22.4176 4.56398H19.6515V6.23121C19.6515 6.30156 19.8427 6.60874 19.9022 6.68925C20.5119 7.50293 21.8312 7.40992 22.2698 6.49775C22.3011 6.43209 22.4168 6.15383 22.4168 6.11474V4.56398H22.4176ZM26.1463 4.56398H23.3801V6.17259C23.3801 6.38519 23.7111 6.8276 23.8919 6.96204C24.5812 7.47714 25.5743 7.28173 25.9776 6.53448C26.0097 6.47586 26.1471 6.19994 26.1471 6.17259V4.56398H26.1463ZM26.1463 17.2601H10.6605C10.3552 17.2601 10.0491 16.43 10.7866 16.3292L27.8608 16.3237C28.1034 16.3393 28.0311 15.5233 27.9548 15.4717L4.16972 15.4428C3.46914 15.3349 3.77203 14.0663 3.70856 13.5512C3.58162 12.5156 2.40462 11.6605 1.34331 11.8223C0.858851 11.8957 0.818681 12.5429 1.2461 12.6703C1.61888 12.7813 1.88883 12.6656 2.29214 12.94C2.48817 13.0737 2.81356 13.495 2.81356 13.7201V16.2362C2.81356 16.2424 2.89711 16.3237 2.90354 16.3237H8.91708C9.1099 16.3237 9.30995 16.6332 9.31156 16.8208C9.31236 16.9732 9.11714 17.2593 8.97734 17.2593H4.67747V24.5145H14.9612C15.1218 23.0153 15.9927 21.6037 17.2878 20.7814C17.6976 20.5211 19.6523 19.5034 19.5912 20.561C19.5663 21.001 18.7485 21.0854 18.4078 21.2277C14.7555 22.7464 15.2319 28.092 19.0979 28.944C24.1996 30.068 26.4074 23.02 21.5749 21.1511C21.2101 21.0096 20.6445 21.0596 20.61 20.5641C20.565 19.92 21.2342 20.0802 21.6488 20.2014C23.5087 20.7439 25.0761 22.6206 25.1838 24.5145H26.1463V17.2593V17.2601ZM20.5529 11.8183H19.6507V14.5095H20.5529V11.8183ZM22.4176 11.8183H21.5154V14.5095H22.4176V11.8183ZM11.1112 13.6325H8.52502C8.94279 14.8159 10.6701 14.7925 11.1112 13.6325ZM5.86331 27.2791C4.59633 27.5074 5.19407 29.5224 6.46185 28.9729C7.43157 28.5524 7.01059 27.0728 5.86331 27.2791Z" fill="white"/>
<path d="M19.8194 22.251C23.3657 21.9165 24.0453 27.0456 20.6284 27.6599C16.7753 28.3525 16.0104 22.6106 19.8194 22.251ZM21.8761 24.5154C21.3563 22.7114 18.828 22.7341 18.268 24.5154H21.8761ZM21.8761 25.451H18.3283C18.787 27.2402 21.3724 27.198 21.8761 25.451Z" fill="white"/>
</g>
<defs>
<clipPath id="clip0_583_5249">
<rect width="29" height="30" fill="white"/>
</clipPath>
</defs>
</svg>
